<?xml version="1.0" encoding="utf-8"?>
<!-- Generator: Adobe Illustrator 21.1.0, SVG Export Plug-In . SVG Version: 6.00 Build 0)  -->
<svg version="1.1" id="Capa_1" xmlns="http://www.w3.org/2000/svg" xmlns:xlink="http://www.w3.org/1999/xlink" x="0px" y="0px"
	 viewBox="0 0 436.5 487.6" style="enable-background:new 0 0 436.5 487.6;" xml:space="preserve">
<style type="text/css">
	.st0{fill:#FFFFFF;stroke:#000000;stroke-width:16;stroke-miterlimit:10;}
</style>
<title>cook-open</title>
<path d="M429,472.6h-51.1c-1.1-32.1-10.4-57.1-27.8-74.4c-23.6-23.4-53.2-23.5-54.4-23.5h-37.6v-11.9c20-8.3,36.9-22.6,48.4-40.9
	c8.8-13.6,14.9-28.9,17.9-44.9c0-0.4,0-0.7,0-1.1v-1.6c5.2-1.2,9.9-4,13.5-8c10.6-11.8,10-30.3,9.2-37.7c-0.4-5.4-3.1-10.4-7.4-13.7
	c-4.7-3.6-10.5-4.9-15.3-5.3V153c33.5-4,57.4-34.5,53.3-68C374,54.4,348,31.3,317.1,31.3c-4.1,0-7.5,3.4-7.5,7.5s3.4,7.5,7.5,7.5
	c25.5,0,46.1,20.6,46.1,46.1s-20.6,46.1-46.1,46.1h-0.2c-4.1,0-7.5,3.4-7.5,7.5v33.8H127v-33.9c0-4.1-3.4-7.5-7.5-7.5l0,0
	c-25.4,0-46.1-20.6-46.1-46.1s20.6-46.1,46.1-46.1s46.1,20.6,46.1,46.1c0,4.1,3.4,7.5,7.5,7.5c4.1,0,7.5-3.4,7.5-7.5
	c0-11-3-21.8-8.6-31.2l0,0c0-25.5,20.6-46.1,46.1-46.1c25.5,0,46.1,20.6,46.1,46.1c0,4.1,3.4,7.5,7.5,7.5s7.5-3.4,7.5-7.5l0,0
	c0-33.7-27.3-61.1-61.1-61.1C190.3,0,166,18.8,159,45.7c-25.7-21.8-64.3-18.6-86.1,7.1s-18.6,64.3,7.1,86.1c9.1,7.7,20.2,12.6,32,14
	v56.7c-4.8,0.3-10.8,1.6-15.5,5.3c-4.3,3.3-7,8.3-7.4,13.7c-0.8,7.4-1.4,26,9.3,37.7c3.6,4,8.4,6.8,13.7,8.1v1.6
	c0,0.4,0,0.7,0.1,1.1c2.9,16,9,31.3,17.8,44.9c11.6,18.3,28.5,32.5,48.4,40.9v11.9h-37.5c-1.3,0-30.9,0-54.5,23.5
	c-17.4,17.3-26.7,42.3-27.8,74.4H7.5c-4.1,0-7.5,3.4-7.5,7.5s3.4,7.5,7.5,7.5H429c4.1,0,7.5-3.4,7.5-7.5S433.1,472.6,429,472.6
	L429,472.6z M295.8,389.8c2.7,0,64.1,1,67.1,82.9H192.1c3.2-2.1,4.1-6.5,2-9.7c-2.1-3.2-6.5-4.1-9.7-2s-4.1,6.5-2,9.7
	c0.5,0.8,1.2,1.5,2,2h-30.9v-81.6c0-0.4,0-0.9-0.1-1.3H295.8z M330.6,226.8c1.1,0.8,1.7,2.1,1.7,3.4c0.9,8.7-0.1,20.2-5.5,26.2
	c-0.7,0.8-1.5,1.4-2.4,2v-33.6C326.6,224.9,328.7,225.6,330.6,226.8L330.6,226.8z M109.5,256.3c-5.4-6-6.4-17.4-5.4-26.2
	c0-1.3,0.6-2.6,1.7-3.4c1.9-1.2,4.1-1.9,6.3-2.1v33.7C111.1,257.9,110.2,257.1,109.5,256.3z M142.8,314.3
	c-7.7-11.9-13-25.1-15.8-38.9v-80.7h182.4v80.7c-2.8,13.9-8.1,27.1-15.8,38.9c-16.8,25.8-42,40-74.7,42.2h-1.4
	C184.8,354.3,159.6,340.1,142.8,314.3L142.8,314.3z M216.8,371.5h0.5h1.9h0.5c7.9-0.5,15.8-1.7,23.5-3.7v7h-49.8v-7
	C201.1,369.8,208.9,371,216.8,371.5L216.8,371.5z M138.5,389.9c-0.1,0.4-0.1,0.8-0.1,1.2v81.6H73.6
	C76.3,398.5,126.9,390.7,138.5,389.9L138.5,389.9z"/>
<circle cx="165" cy="227.7" r="8.9"/>
<circle cx="271.5" cy="227.7" r="9"/>
<circle cx="188.2" cy="442.2" r="7"/>
<circle cx="188.2" cy="417.5" r="7"/>
<path d="M216.3,276.4h3.9c9.6,0,17.6-7.6,18-17.2c0-0.3,0-0.5,0-0.8v-29.5c0-4.1-3.4-7.5-7.5-7.5c-4.1,0-7.5,3.4-7.5,7.5v29.5
	c0,1.7-1.3,3-3,3h-3.9c-1.7,0-3-1.3-3-3c0-4.1-3.4-7.5-7.5-7.5c-4.1,0-7.5,3.4-7.5,7.5C198.3,268.4,206.4,276.4,216.3,276.4
	C216.3,276.4,216.3,276.4,216.3,276.4z"/>
<path d="M264.8,312.7c2.5-3.3,2-8-1.3-10.5c-3.2-2.5-7.8-2-10.4,1.1c-0.1,0.1-9.1,9.9-33,9.9c-24.8,0-36.9-10.3-37.5-10.8
	c-3.1-2.7-7.9-2.3-10.6,0.8c-2.6,3-2.4,7.6,0.5,10.3c0.7,0.6,16.5,14.7,47.6,14.7S263.4,314.3,264.8,312.7z"/>
<path d="M429,472.6h-51.1c-1.1-32.1-10.4-57.1-27.8-74.4c-23.6-23.4-53.2-23.5-54.4-23.5h-37.6v-11.9c20-8.3,36.9-22.6,48.4-40.9
	c8.8-13.6,14.9-28.9,17.9-44.9c0-0.4,0-0.7,0-1.1v-1.6c5.2-1.2,9.9-4,13.5-8c10.6-11.8,10-30.3,9.2-37.7c-0.4-5.4-3.1-10.4-7.4-13.7
	c-4.7-3.6-10.5-4.9-15.3-5.3V153c33.5-4,57.4-34.5,53.3-68C374,54.4,348,31.3,317.1,31.3c-4.1,0-7.5,3.4-7.5,7.5s3.4,7.5,7.5,7.5
	c25.5,0,46.1,20.6,46.1,46.1s-20.6,46.1-46.1,46.1h-0.2c-4.1,0-7.5,3.4-7.5,7.5v33.8H127v-33.9c0-4.1-3.4-7.5-7.5-7.5l0,0
	c-25.4,0-46.1-20.6-46.1-46.1s20.6-46.1,46.1-46.1s46.1,20.6,46.1,46.1c0,4.1,3.4,7.5,7.5,7.5c4.1,0,7.5-3.4,7.5-7.5
	c0-11-3-21.8-8.6-31.2l0,0c0-25.5,20.6-46.1,46.1-46.1c25.5,0,46.1,20.6,46.1,46.1c0,4.1,3.4,7.5,7.5,7.5s7.5-3.4,7.5-7.5l0,0
	c0-33.7-27.3-61.1-61.1-61.1C190.3,0,166,18.8,159,45.7c-25.7-21.8-64.3-18.6-86.1,7.1s-18.6,64.3,7.1,86.1c9.1,7.7,20.2,12.6,32,14
	v56.7c-4.8,0.3-10.8,1.6-15.5,5.3c-4.3,3.3-7,8.3-7.4,13.7c-0.8,7.4-1.4,26,9.3,37.7c3.6,4,8.4,6.8,13.7,8.1v1.6
	c0,0.4,0,0.7,0.1,1.1c2.9,16,9,31.3,17.8,44.9c11.6,18.3,28.5,32.5,48.4,40.9v11.9h-37.5c-1.3,0-30.9,0-54.5,23.5
	c-17.4,17.3-26.7,42.3-27.8,74.4H7.5c-4.1,0-7.5,3.4-7.5,7.5s3.4,7.5,7.5,7.5H429c4.1,0,7.5-3.4,7.5-7.5S433.1,472.6,429,472.6
	L429,472.6z M295.8,389.8c2.7,0,64.1,1,67.1,82.9H192.1c3.2-2.1,4.1-6.5,2-9.7c-2.1-3.2-6.5-4.1-9.7-2s-4.1,6.5-2,9.7
	c0.5,0.8,1.2,1.5,2,2h-30.9v-81.6c0-0.4,0-0.9-0.1-1.3H295.8z M330.6,226.8c1.1,0.8,1.7,2.1,1.7,3.4c0.9,8.7-0.1,20.2-5.5,26.2
	c-0.7,0.8-1.5,1.4-2.4,2v-33.6C326.6,224.9,328.7,225.6,330.6,226.8L330.6,226.8z M109.5,256.3c-5.4-6-6.4-17.4-5.4-26.2
	c0-1.3,0.6-2.6,1.7-3.4c1.9-1.2,4.1-1.9,6.3-2.1v33.7C111.1,257.9,110.2,257.1,109.5,256.3z M142.8,314.3
	c-7.7-11.9-13-25.1-15.8-38.9v-80.7h182.4v80.7c-2.8,13.9-8.1,27.1-15.8,38.9c-16.8,25.8-42,40-74.7,42.2h-1.4
	C184.8,354.3,159.6,340.1,142.8,314.3L142.8,314.3z M216.8,371.5h0.5h1.9h0.5c7.9-0.5,15.8-1.7,23.5-3.7v7h-49.8v-7
	C201.1,369.8,208.9,371,216.8,371.5L216.8,371.5z M138.5,389.9c-0.1,0.4-0.1,0.8-0.1,1.2v81.6H73.6
	C76.3,398.5,126.9,390.7,138.5,389.9L138.5,389.9z"/>
<circle cx="188.2" cy="442.2" r="7"/>
<circle cx="188.2" cy="417.5" r="7"/>
<path d="M216.3,276.4h3.9c9.6,0,17.6-7.6,18-17.2c0-0.3,0-0.5,0-0.8v-29.5c0-4.1-3.4-7.5-7.5-7.5c-4.1,0-7.5,3.4-7.5,7.5v29.5
	c0,1.7-1.3,3-3,3h-3.9c-1.7,0-3-1.3-3-3c0-4.1-3.4-7.5-7.5-7.5c-4.1,0-7.5,3.4-7.5,7.5C198.3,268.4,206.4,276.4,216.3,276.4
	C216.3,276.4,216.3,276.4,216.3,276.4z"/>
<path d="M264.8,312.7c2.5-3.3,2-8-1.3-10.5c-3.2-2.5-7.8-2-10.4,1.1c-0.1,0.1-9.1,9.9-33,9.9c-24.8,0-36.9-10.3-37.5-10.8
	c-3.1-2.7-7.9-2.3-10.6,0.8c-2.6,3-2.4,7.6,0.5,10.3c0.7,0.6,16.5,14.7,47.6,14.7S263.4,314.3,264.8,312.7z"/>
<path class="st0" d="M190.4,315.4c-1.1-1.1-2.3-2-3.6-2.7c3.9-7.9,0.7-17.5-7.1-21.7c3.5-8.3-0.4-17.9-8.7-21.4
	c-4.1-1.7-8.6-1.7-12.7,0c-4.2-8-14.1-11-22.1-6.8c-1.4,0.8-2.8,1.7-3.9,2.9l-20.8,20.8c-1.7-9-10.4-14.8-19.4-13.1
	c-4.3,0.8-8.2,3.4-10.6,7.1l-15,22.4c-6.1,9.1-9.4,19.9-9.3,30.9v12.6l-14.3,14.3c-0.4,0.4-0.7,0.8-0.9,1.2l-2.2,2.2l1.3,1.3
	c0.1,3.3,2.8,6,6.1,6.1l32.5,32.5c0.1,3.3,2.7,5.9,6,6l1.4,1.5l7.1-7.1l0,0l10.5-10.6h7.2c14.7,0,28.8-5.8,39.2-16.2l22.8-22.8
	l16.5-16.5C196.8,332.1,196.8,321.8,190.4,315.4C190.4,315.4,190.4,315.4,190.4,315.4z"/>
<path class="st0" d="M252,239.4c1.1-1.1,2.3-2,3.6-2.7c-3.9-7.9-0.8-17.5,7.1-21.7c-3.5-8.3,0.4-17.9,8.7-21.4
	c4.1-1.7,8.6-1.7,12.7,0c4.2-8,14.1-11,22.1-6.8c1.4,0.8,2.8,1.7,3.9,2.9l20.8,20.8c1.7-9,10.4-14.8,19.4-13.1
	c4.3,0.8,8.2,3.4,10.6,7.1l15,22.4c6.1,9.1,9.4,19.9,9.4,30.9v12.6l14.3,14.3c0.4,0.4,0.7,0.8,0.9,1.2l2.2,2.2l-1.3,1.3
	c-0.1,3.3-2.8,6-6.1,6.1l-32.5,32.5c-0.1,3.3-2.7,5.9-6,6l-1.5,1.5l-7.1-7.1l0,0L337.7,318h-7.3c-14.7,0-28.8-5.8-39.2-16.2
	L268.5,279L252,262.5C245.7,256.1,245.7,245.7,252,239.4C252,239.4,252,239.4,252,239.4L252,239.4z"/>
</svg>
